<?xml version="1.0" standalone="no"?>
<!DOCTYPE svg PUBLIC "-//W3C//DTD SVG 20010904//EN"
        "http://www.w3.org/TR/2001/REC-SVG-20010904/DTD/svg10.dtd">
<svg version="1.0" xmlns="http://www.w3.org/2000/svg"
     width="13px" height="13px" viewBox="0 0 512.000000 512.000000"
     preserveAspectRatio="xMidYMid meet">

    <g transform="translate(0.000000,512.000000) scale(0.100000,-0.100000)"
       fill="#CED0D6" stroke="none">
        <path d="M1986 4029 c-400 -58 -845 -299 -1315 -711 -223 -195 -614 -611 -652
-693 -39 -84 -20 -126 134 -300 590 -668 1192 -1093 1713 -1210 339 -76 653
-21 1051 185 347 180 739 493 1093 875 74 80 139 144 144 142 4 -1 166 -187
360 -412 193 -225 363 -418 378 -429 38 -27 118 -27 155 0 67 50 90 130 56
191 -10 18 -182 224 -383 458 -201 235 -365 430 -365 435 0 5 164 200 365 435
201 234 373 440 383 458 34 61 11 141 -56 191 -37 27 -117 27 -155 0 -15 -11
-185 -204 -378 -429 -194 -225 -356 -411 -360 -412 -5 -2 -70 62 -144 142
-127 138 -346 345 -490 467 -254 213 -570 411 -815 509 -247 98 -512 138 -719
108z m355 -310 c103 -20 268 -81 396 -144 308 -153 583 -363 933 -714 113
-113 223 -227 244 -253 l38 -48 -38 -47 c-71 -88 -448 -458 -564 -554 -380
-314 -710 -496 -1015 -560 -77 -16 -293 -16 -370 0 -305 64 -635 246 -1015
560 -116 96 -493 466 -564 554 l-38 47 38 48 c21 26 131 140 244 253 533 534
985 811 1425 873 47 7 227 -2 286 -15z"/>
        <path d="M2010 3194 c-179 -38 -356 -178 -439 -344 -47 -96 -71 -194 -71 -290
0 -351 299 -650 650 -650 351 0 650 299 650 650 0 239 -146 473 -360 579 -139
68 -284 87 -430 55z m285 -318 c70 -32 140 -102 173 -174 22 -48 27 -71 27
-142 0 -104 -29 -174 -100 -245 -71 -71 -141 -100 -245 -100 -104 0 -174 29
-245 100 -71 71 -100 141 -100 245 0 71 5 94 27 142 44 95 136 173 235 198 61
15 167 4 228 -24z"/>
    </g>
</svg>
